Coordinates
version=1
nRows=24
nColumns=19
inDegrees=yes

Units are S.I. units (second, meters, Newtons, ...)
If the header above contains a line with 'inDegrees', this indicates whether rotational values are in degrees (yes) or radians (no).

endheader
time	pelvis_tilt	pelvis_list	pelvis_rotation	pelvis_tx	pelvis_ty	pelvis_tz	hip_flexion_r	hip_adduction_r	hip_rotation_r	knee_angle_r	knee_angle_r_beta	ankle_angle_r	hip_flexion_l	hip_adduction_l	hip_rotation_l	knee_angle_l	knee_angle_l_beta	ankle_angle_l
     13.43333333	    -13.37436696	      9.41283916	      5.41040636	      2.16268236	      0.92855838	      0.92106724	    -14.01622533	    -14.79091771	    -17.36998586	     45.37937332	      0.79201948	    -12.88463686	     36.92407892	     14.29865484	    -13.86470874	     12.91003815	      0.22532267	      9.81977527
     13.44000000	    -13.16363142	     10.13211351	      5.47666518	      2.16289775	      0.92419435	      0.92068893	    -13.19138383	    -16.03694415	    -16.99503377	     49.38314407	      0.86189846	    -13.19344823	     37.19895999	     14.67279818	    -15.28414927	     15.61565258	      0.27254455	      9.66056050
     13.44666667	    -12.59010820	     10.91790945	      5.63122364	      2.16320243	      0.91994995	      0.92044537	    -12.76677223	    -17.23169904	    -16.72726729	     53.27515838	      0.92982692	    -13.61495590	     37.05872203	     15.09580380	    -16.44084780	     18.63973415	      0.32532473	      9.42624988
     13.45333333	    -11.74364141	     11.72059628	      5.87474139	      2.16351192	      0.91578171	      0.92026895	    -12.63209273	    -18.34538948	    -16.56643436	     57.06382576	      0.99595164	    -14.03394992	     36.55546946	     15.57354693	    -17.21711898	     21.81803646	      0.38079657	      9.23832939
     13.46000000	    -11.36839447	     12.21673960	      5.96086435	      2.16350080	      0.91106736	      0.92034087	    -11.59971994	    -19.10037751	    -15.72057616	     60.97037258	      1.06413375	    -14.29611098	     36.61019691	     15.64601778	    -17.87277067	     25.22693123	      0.44029301	      9.15740982
     13.46666667	    -10.48148469	     12.80300052	      6.23345432	      2.16342902	      0.90685594	      0.92030694	    -11.23171889	    -19.84566802	    -15.30278828	     64.65763971	      1.12848870	    -14.42731276	     35.95514956	     15.99346876	    -17.97002181	     28.50096670	      0.49743571	      9.36399991
     13.47333333	     -9.83515412	     13.16423632	      6.45242959	      2.16305209	      0.90250113	      0.92033207	    -10.34374775	    -20.29617729	    -14.52861645	     68.32968662	      1.19257801	    -14.29456178	     35.52480885	     16.13902265	    -17.85773802	     31.77983603	      0.55466277	      9.94781394
     13.48000000	     -9.77215746	     13.09831030	      6.69355404	      2.16213788	      0.89784024	      0.92029921	     -8.46341931	    -20.26336246	    -13.32392235	     72.03825424	      1.25730472	    -13.97643488	     35.67887733	     15.97510244	    -17.38859187	     34.97867013	      0.61049296	     10.87791128
     13.48666667	     -9.06665923	     13.27078604	      7.03133005	      2.16121618	      0.89413990	      0.92016730	     -7.42876450	    -20.43416475	    -12.61443796	     75.43620526	      1.31661016	    -13.38508802	     34.90749667	     16.18993981	    -16.66845066	     37.83234822	      0.66029904	     12.22413346
     13.49333333	     -9.17396961	     12.88350248	      7.35364436	      2.15970250	      0.89007720	      0.91994420	     -5.06507326	    -19.98909402	    -11.35740815	     78.85783315	      1.37632883	    -12.67883246	     34.97394041	     15.94054479	    -15.72408357	     40.58555142	      0.70835150	     13.84814461
     13.50000000	     -8.42017528	     12.94456058	      7.66878486	      2.15837155	      0.88744093	      0.91970760	     -3.82977354	    -20.01640445	    -10.61059188	     81.88468833	      1.42915742	    -11.83770793	     33.74738324	     16.18737219	    -14.74564187	     42.74941556	      0.74611805	     15.76492450
     13.50666667	     -8.79172953	     12.10433944	      7.81324542	      2.15630756	      0.88417769	      0.91957356	     -0.72460272	    -18.99152481	     -9.00831027	     84.94263260	      1.48252861	    -10.95621114	     33.79878297	     15.52179770	    -13.69680489	     44.94849552	      0.78449924	     17.77038230
     13.51333333	     -8.77440151	     11.60029059	      7.94534462	      2.15442080	      0.88194705	      0.91938740	      1.84573087	    -18.35984012	     -7.74185921	     87.65347345	      1.52984171	     -9.98213755	     33.07046512	     15.22098685	    -12.69102028	     46.53879094	      0.81225513	     19.79526950
     13.52000000	     -8.21251913	     11.35241449	      8.08879202	      2.15278816	      0.88099375	      0.91910758	      3.69181480	    -18.02920046	     -6.82440208	     89.94456367	      1.56982878	     -8.99091800	     31.39161921	     15.20499382	    -11.60968320	     47.55099495	      0.82992142	     21.82490268
     13.52666667	     -7.99747344	     10.76696182	      7.99699941	      2.15111019	      0.88037672	      0.91911372	      6.18154881	    -17.21996900	     -5.54319322	     91.98306431	      1.60540733	     -8.02365288	     29.93932335	     14.69412503	    -10.78184997	     48.25777563	      0.84225707	     23.69488300
     13.53333333	     -7.82154611	     10.18732143	      7.84117409	      2.14945544	      0.88041220	      0.91906552	      8.75122892	    -16.41476551	     -4.30001655	     93.69698492	      1.63532089	     -7.17914572	     28.30663104	     14.23175883	     -9.86063609	     48.52902117	      0.84699120	     25.29923229
     13.54000000	     -8.61554253	      9.20020864	      7.19077395	      2.14751912	      0.87988590	      0.91969134	     12.81657262	    -14.95901753	     -2.34200468	     95.30418796	      1.66337187	     -6.64529325	     27.77972000	     13.03510417	     -9.72446938	     48.74554759	      0.85077030	     26.35178225
     13.54666667	     -8.42375355	      8.62847826	      7.05599089	      2.14639024	      0.88125900	      0.91959358	     15.18543828	    -14.17985008	     -1.53000883	     96.21591608	      1.67928453	     -5.88005026	     25.69895780	     12.54395675	     -8.90923136	     48.26309386	      0.84234990	     27.33588686
     13.55333333	     -8.44822761	      7.93722111	      6.42538207	      2.14532778	      0.88293108	      0.91999588	     17.97438539	    -13.06883274	     -0.27368101	     96.85515139	      1.69044129	     -5.28691546	     23.79308777	     11.67762216	     -8.67535995	     47.54578366	      0.82983047	     27.82344962
     13.56000000	     -8.40933172	      7.25380790	      6.02860157	      2.14460758	      0.88531097	      0.92005853	     20.42795227	    -12.09812870	      0.46476704	     97.02954908	      1.69348510	     -4.64888265	     21.63072253	     10.93333802	     -8.21696498	     46.50533959	      0.81167130	     28.04090180
     13.56666667	     -8.53340240	      6.53666132	      5.94156035	      2.14421273	      0.88809574	      0.91963218	     22.79253947	    -11.33810459	      0.64221004	     96.77829227	      1.68909984	     -3.94822120	     19.52284892	     10.29829277	     -7.43862301	     45.23464053	      0.78949341	     27.76204836
     13.57333333	     -8.37624313	      5.77431112	      5.23555098	      2.14399727	      0.89163640	      0.91993892	     24.91473000	    -10.15899169	      1.28803021	     96.18713146	      1.67878214	     -3.37062787	     17.05171171	      9.30620241	     -7.43707891	     43.72353564	      0.76311966	     27.22601239
     13.58000000	     -8.17135747	      5.02457336	      4.91527342	      2.14424109	      0.89572727	      0.91961411	     26.62821021	     -9.34128740	      1.23637468	     95.15441708	      1.66075788	     -2.62738932	     14.40913226	      8.47950237	     -7.05737393	     41.99005636	      0.73286474	     26.23651673
     13.58666667	     -8.14735650	      4.14133091	      4.60792653	      2.14462645	      0.89995354	      0.91919967	     28.38265848	     -8.43541381	      0.97652463	     93.77514275	      1.63668500	     -1.88245665	     11.97874364	      7.50144391	     -6.76487377	     40.20770596	      0.70175685	     24.88776222
